PathFileType	4	(X/Y/Z)	/Users/itak/Documents/Research/Walk-IL/dataset/trc/00121_00007.trc
DataRate	CameraRate	NumFrames	NumMarkers	Units	OrigDataRate	OrigDataStartFrame	OrigNumFrames
100.000000	100.000000	4	53	mm	100.000000	631	722
Frame#	Time	RPSI			LPSI			L3			STRN			T10			C7			CLAV			RBAK			LBAK			LSHO			LUPA			LAEL			LAOL			LWTS			LWPS			LFRA			LIFD			LHPS			LHTS			RSHO			RUPA			RAEL			RAOL			RWTS			RWPS			RFRA			RIFD			RHTS			RHPS			RBHD			LFHD			RFHD			LBHD			LHIP			RHIP			RASI			LASI			LKNE			LTHI			LANK			LTIP			LTOE			LMT1			LMT5			LHEE			RKNE			RTHI			RANK			RTIP			RTOE			RMT1			RMT5			RHEE			
		X1	Y1	Z1	X2	Y2	Z2	X3	Y3	Z3	X4	Y4	Z4	X5	Y5	Z5	X6	Y6	Z6	X7	Y7	Z7	X8	Y8	Z8	X9	Y9	Z9	X10	Y10	Z10	X11	Y11	Z11	X12	Y12	Z12	X13	Y13	Z13	X14	Y14	Z14	X15	Y15	Z15	X16	Y16	Z16	X17	Y17	Z17	X18	Y18	Z18	X19	Y19	Z19	X20	Y20	Z20	X21	Y21	Z21	X22	Y22	Z22	X23	Y23	Z23	X24	Y24	Z24	X25	Y25	Z25	X26	Y26	Z26	X27	Y27	Z27	X28	Y28	Z28	X29	Y29	Z29	X30	Y30	Z30	X31	Y31	Z31	X32	Y32	Z32	X33	Y33	Z33	X34	Y34	Z34	X35	Y35	Z35	X36	Y36	Z36	X37	Y37	Z37	X38	Y38	Z38	X39	Y39	Z39	X40	Y40	Z40	X41	Y41	Z41	X42	Y42	Z42	X43	Y43	Z43	X44	Y44	Z44	X45	Y45	Z45	X46	Y46	Z46	X47	Y47	Z47	X48	Y48	Z48	X49	Y49	Z49	X50	Y50	Z50	X51	Y51	Z51	X52	Y52	Z52	X53	Y53	Z53	

632	6.31	-609.7577514648438	1119.936157226562	747.97900390625	-516.395263671875	1117.817993164062	649.3031616210938	-571.4010009765625	1152.908935546875	690.3164672851562	-420.2097473144531	1365.779541015625	834.3294677734375	-605.5629272460938	1302.073486328125	669.4268798828125	-584.8468017578125	1596.452270507812	668.677490234375	-449.531005859375	1497.89599609375	799.7418212890625	-677.1976928710938	1412.111083984375	707.432861328125	-522.8289184570312	1574.747802734375	588.2224731445312	-413.2571716308594	1563.75244140625	593.3306274414062	-383.8996276855469	1432.59765625	527.9284057617188	-363.3436889648438	1214.702392578125	516.4881591796875	-450.9533996582031	1202.007568359375	517.5569458007812	-302.7755126953125	969.5509643554688	633.351318359375	-345.8556823730469	934.0577392578125	563.6057739257812	-343.8295593261719	1099.62158203125	530.439453125	-299.2467956542969	780.783935546875	678.6415405273438	-318.7907104492188	862.690673828125	589.4260864257812	-279.5145874023438	881.5921630859375	643.6570434570312	-661.7017822265625	1585.673706054688	844.6356201171875	-711.5091552734375	1513.495483398438	885.332763671875	-722.669677734375	1222.152954101562	938.19384765625	-670.8095092773438	1210.790161132812	855.5782470703125	-556.7239990234375	1025.471435546875	1057.341430664062	-630.81884765625	990.7290649414062	1045.257568359375	-701.0729370117188	1156.554321289062	978.3179321289062	-486.7814636230469	847.736328125	1098.994995117188	-515.9502563476562	931.6986694335938	1102.962890625	-583.9796142578125	907.1104125976562	1090.656005859375	-579.4892578125	1785.618774414062	775.54052734375	-366.3506774902344	1819.44140625	735.7547607421875	-425.9057006835938	1835.386840820312	849.5548095703125	-523.8032836914062	1773.4921875	653.0768432617188	-370.1912841796875	1034.866088867188	638.3619995117188	-598.8245239257812	1033.821533203125	924.7899780273438	-504.6647644042969	1109.467529296875	941.1383056640625	-330.6834106445312	1107.703857421875	741.4179077148438	-302.2108459472656	538.8391723632812	765.2171020507812	-323.5056762695312	681.57666015625	706.0930786132812	-440.9783325195312	50.18490219116211	633.5657348632812	-381.9590454101562	300.436279296875	650.87744140625	-325.8839416503906	52.41592788696289	833.8385009765625	-405.3764343261719	49.29201507568359	802.2535400390625	-340.6327514648438	46.29159927368164	708.0022583007812	-534.4058227539062	54.80232238769531	624.3623657226562	-570.6061401367188	538.9611206054688	885.8639526367188	-571.6738891601562	819.4972534179688	931.7766723632812	-619.0689086914062	31.58936882019043	775.085693359375	-592.6549682617188	404.3410949707031	870.0723876953125	-414.6197204589844	41.80087661743164	905.6217041015625	-430.00146484375	39.91205215454102	833.3276977539062	-544.0947265625	40.58012390136719	887.7310791015625	-624.5387573242188	37.22776031494141	700.1951904296875	
633	6.32	-608.1693725585938	1119.974487304688	749.7459716796875	-514.6021728515625	1117.835815429688	651.248779296875	-569.6921997070312	1152.632568359375	692.1746826171875	-418.8512878417969	1365.536254882812	836.2401733398438	-603.9540405273438	1301.658081054688	671.0692138671875	-583.9010009765625	1596.057861328125	670.3541259765625	-448.4734802246094	1497.635375976562	801.6619873046875	-675.931884765625	1411.53076171875	708.947265625	-521.6536254882812	1574.547119140625	589.9551391601562	-412.0911560058594	1563.7783203125	595.3112182617188	-382.0049743652344	1432.704223632812	530.0596923828125	-360.3926086425781	1214.7919921875	519.086669921875	-448.01513671875	1201.802734375	519.4774169921875	-300.102294921875	969.755615234375	636.38623046875	-342.5798950195312	934.2008056640625	566.2821044921875	-340.7334289550781	1099.7685546875	533.200927734375	-296.5717468261719	780.959228515625	681.6032104492188	-315.5501708984375	862.8782958984375	592.268310546875	-276.7522583007812	881.8472900390625	646.8320922851562	-660.8411865234375	1584.995483398438	846.3685913085938	-710.4842529296875	1512.657348632812	886.8807373046875	-721.489013671875	1221.345092773438	939.3234252929688	-670.0039672851562	1210.248046875	856.416748046875	-556.9066162109375	1022.344848632812	1056.35791015625	-631.3692016601562	988.423828125	1044.337768554688	-700.3165893554688	1155.408935546875	978.8856201171875	-488.4963073730469	843.535888671875	1096.101318359375	-516.789794921875	927.7411499023438	1100.946166992188	-585.0675659179688	904.0221557617188	1088.839477539062	-579.0525512695312	1785.270263671875	777.3695678710938	-366.0357971191406	1819.474731445312	737.234130859375	-425.4383850097656	1835.288452148438	851.1341552734375	-523.5241088867188	1773.231689453125	654.7957763671875	-368.6740417480469	1034.632934570312	640.1956176757812	-597.4826049804688	1033.559692382812	926.355712890625	-503.103271484375	1109.153076171875	942.991943359375	-329.0352478027344	1107.421020507812	743.2930908203125	-304.0118713378906	537.9244384765625	764.5861206054688	-324.3232727050781	680.84765625	706.0633544921875	-439.4024047851562	48.26536560058594	635.953125	-381.2998046875	298.2709350585938	651.9155883789062	-324.4890747070312	49.01330947875977	837.375732421875	-404.4234619140625	46.99775695800781	804.9129028320312	-338.8030090332031	45.10884857177734	710.6983642578125	-532.8612060546875	52.2370491027832	626.1995849609375	-570.0244750976562	538.7776489257812	886.5834350585938	-570.5115356445312	819.2391357421875	933.1107177734375	-619.1106567382812	31.55142211914062	775.0717163085938	-592.318603515625	404.2603759765625	870.5361938476562	-414.6569519042969	41.82620239257812	905.60986328125	-430.0325317382812	39.95624160766602	833.3468017578125	-544.1674194335938	40.53939819335938	887.7584838867188	-624.5618286132812	37.20578765869141	700.1476440429688	
634	6.33	-606.631103515625	1120.021728515625	751.4739990234375	-512.8504638671875	1117.850952148438	653.1609497070312	-568.0264892578125	1152.362915039062	693.995361328125	-417.46044921875	1365.292724609375	838.08740234375	-602.3326416015625	1301.252197265625	672.639404296875	-582.9078369140625	1595.66650390625	671.9454956054688	-447.3903198242188	1497.369384765625	803.5226440429688	-674.6292114257812	1410.940673828125	710.3526000976562	-520.419921875	1574.352416992188	591.60546875	-410.8738403320312	1563.802124023438	597.2388305664062	-380.05029296875	1432.8115234375	532.1552124023438	-357.4052429199219	1214.901611328125	521.619384765625	-445.0346069335938	1201.615600585938	521.3264770507812	-297.4423217773438	969.9237060546875	639.2692260742188	-339.3013916015625	934.348876953125	568.8005981445312	-337.6116027832031	1099.9345703125	535.868896484375	-293.9793090820312	781.0772705078125	684.3461303710938	-312.34765625	863.0469360351562	594.9281616210938	-274.0123291015625	882.0397338867188	649.8335571289062	-659.9800415039062	1584.307983398438	847.9829711914062	-709.501708984375	1511.821411132812	888.3033447265625	-720.4135131835938	1220.547241210938	940.2718505859375	-669.2304077148438	1209.697998046875	857.1079711914062	-557.3422241210938	1019.140991210938	1055.197387695312	-632.1818237304688	986.078369140625	1043.193359375	-699.7134399414062	1154.240356445312	979.2504272460938	-490.5839233398438	839.2664184570312	1093.041259765625	-517.9608154296875	923.7088012695312	1098.754028320312	-586.4712524414062	900.8970947265625	1086.82568359375	-578.6510009765625	1784.921997070312	779.07421875	-365.7375183105469	1819.5595703125	738.7032470703125	-425.0535278320312	1835.221435546875	852.6712646484375	-523.2142333984375	1772.99609375	656.4242553710938	-367.2132263183594	1034.382690429688	641.94921875	-596.0733032226562	1033.300170898438	927.9186401367188	-501.4933471679688	1108.831420898438	944.7827758789062	-327.385498046875	1107.10205078125	745.0675659179688	-305.8315124511719	537.0120849609375	763.7088012695312	-325.1878356933594	680.1331176757812	705.8037109375	-438.3904113769531	46.68575668334961	637.6133422851562	-381.0253295898438	296.3562316894531	652.4691162109375	-323.2607116699219	46.03425598144531	840.044189453125	-403.7261962890625	45.0968017578125	806.8304443359375	-337.4390869140625	44.18212890625	712.543212890625	-531.8494873046875	49.95942687988281	627.5099487304688	-569.5042114257812	538.5949096679688	887.2122802734375	-569.3765869140625	818.9743041992188	934.3817138671875	-619.1664428710938	31.49490928649902	775.0595092773438	-592.039306640625	404.1952209472656	870.9259033203125	-414.706298828125	41.85953903198242	905.5916137695312	-430.1000366210938	39.99951171875	833.358642578125	-544.2516479492188	40.49358367919922	887.788330078125	-624.5839233398438	37.1591682434082	700.10986328125	
635	6.34	-605.1512451171875	1120.084716796875	753.176025390625	-511.1547241210938	1117.883056640625	655.0443725585938	-566.4130859375	1152.121948242188	695.7904663085938	-416.0472412109375	1365.06201171875	839.8778686523438	-600.7354125976562	1300.874633789062	674.1192626953125	-581.8609619140625	1595.296752929688	673.46044921875	-446.2807312011719	1497.111083984375	805.3297729492188	-673.2909545898438	1410.357177734375	711.6505737304688	-519.1267700195312	1574.177734375	593.1813354492188	-409.5977783203125	1563.834350585938	599.1194458007812	-378.0452270507812	1432.931396484375	534.2144165039062	-354.4058837890625	1215.037963867188	524.0729370117188	-442.0336608886719	1201.45556640625	523.1122436523438	-294.7973022460938	970.0723876953125	641.9946899414062	-336.0235900878906	934.5109252929688	571.1655883789062	-334.4820861816406	1100.122802734375	538.43359375	-291.4403991699219	781.1569213867188	686.87646484375	-309.1787719726562	863.2093505859375	597.4107055664062	-271.2836303710938	882.1912231445312	652.6550903320312	-659.119873046875	1583.628295898438	849.4819946289062	-708.5633544921875	1511.001342773438	889.599365234375	-719.4611206054688	1219.762817382812	941.009033203125	-668.473388671875	1209.154296875	857.6573486328125	-558.0209350585938	1015.882751464844	1053.869018554688	-633.2501220703125	983.7166748046875	1041.824829101562	-699.2569580078125	1153.065551757812	979.4107055664062	-493.0451354980469	834.953369140625	1089.830078125	-519.4600219726562	919.6260375976562	1096.397705078125	-588.2285766601562	897.7347412109375	1084.579223632812	-578.2791137695312	1784.584594726562	780.6546630859375	-365.4590759277344	1819.716796875	740.1622314453125	-424.7474365234375	1835.20849609375	854.1668090820312	-522.8720092773438	1772.794799804688	657.9658203125	-365.8064575195312	1034.149658203125	643.6234130859375	-594.5863647460938	1033.048095703125	929.4922485351562	-499.8414306640625	1108.508666992188	946.5176391601562	-325.732177734375	1106.770263671875	746.7461547851562	-307.6436157226562	536.1386108398438	762.568603515625	-326.0699157714844	679.4742431640625	705.3228149414062	-437.8785400390625	45.3896484375	638.6012573242188	-381.1484069824219	294.7252807617188	652.5151977539062	-322.3226318359375	43.70806503295898	841.8812255859375	-403.3017578125	43.63399124145508	808.071533203125	-336.5596618652344	43.50567245483398	713.6544799804688	-531.309814453125	47.9495964050293	628.3160400390625	-569.0418701171875	538.415771484375	887.7439575195312	-568.2705078125	818.7031860351562	935.5865478515625	-619.2328491210938	31.4263858795166	775.0477294921875	-591.8179931640625	404.1472473144531	871.2373046875	-414.767333984375	41.90042114257812	905.5676879882812	-430.1964111328125	40.04449462890625	833.36474609375	-544.346435546875	40.44425582885742	887.8201293945312	-624.6085205078125	37.09649276733398	700.0775146484375	
